# xmcd CD database file
#
# Track frame offsets:
#	150
#	20717
#	42970
#	64755
#	86745
#	103940
#	124592
#	142757
#	160190
#	168437
#
# Disc length: 2506 seconds
#
# Revision: 0
# Processed by: cddbd v1.5.1PL0 Copyright (c) Steve Scherf et al.
# Submitted via: CDex 1.51
#
DISCID=8109c80a
DTITLE=山口紗弥加 - Romanstic
DYEAR=1999
DGENRE=J-POP
TTITLE0=Lilia
TTITLE1=BABY MOON
TTITLE2=lemon・tea
TTITLE3=time with
TTITLE4=赤い花〜missing you〜
TTITLE5=Little Wing
TTITLE6=Lie.
TTITLE7=April fool
TTITLE8=Johnと菊のバラード
TTITLE9=Limited.
EXTD=YEAR: 99.05.26
EXTT0=
EXTT1=
EXTT2=
EXTT3=
EXTT4=
EXTT5=
EXTT6=
EXTT7=
EXTT8=
EXTT9=
PLAYORDER=
